<?xml version="1.0" encoding="UTF-8"?>
<!DOCTYPE svg PUBLIC "-//W3C//DTD SVG 1.1//EN" "http://www.w3.org/Graphics/SVG/1.1/DTD/svg11.dtd">
<!-- Creator: CorelDRAW -->
<svg xmlns="http://www.w3.org/2000/svg" xml:space="preserve" width="6.82666in" height="6.82666in" style="shape-rendering:geometricPrecision; text-rendering:geometricPrecision; image-rendering:optimizeQuality; fill-rule:evenodd; clip-rule:evenodd"
viewBox="0 0 6.82666 6.82666"
 xmlns:xlink="http://www.w3.org/1999/xlink">
 <defs>
  <style type="text/css">
   <![CDATA[
    .fil4 {fill:none}
    .fil2 {fill:#1B7ACE}
    .fil0 {fill:#1E88E5}
    .fil3 {fill:#74B377}
    .fil1 {fill:#81C784}
   ]]>
  </style>
 </defs>
 <g id="Layer_x0020_1">
  <metadata id="CorelCorpID_0Corel-Layer"/>
  <g id="_80045168">
   <g>
    <circle id="_311369232" class="fil0" cx="3.41333" cy="3.41333" r="2.56"/>
    <g>
     <polygon id="_312553856" class="fil1" points="4.69008,1.86361 4.69569,1.90507 4.6334,1.91801 4.62506,2.00614 4.69956,2.00614 4.79888,1.9965 4.84986,1.93596 4.79546,1.91472 4.76576,1.88054 4.72096,1.8082 4.69956,1.70615 4.61546,1.72296 4.5919,1.75941 4.5919,1.79973 4.63226,1.82716 "/>
     <polygon id="_312571520" class="fil1" points="4.61891,1.89791 4.62335,1.84237 4.57395,1.82097 4.50507,1.83676 4.45396,1.91915 4.45396,1.97184 4.51341,1.97184 "/>
     <path id="_274747256" class="fil1" d="M3.20094 2.13272l-0.0152205 0.0387756 -0.0733583 0 0 0.0380433 0.017374 0c0,0 0.00101575,0.0078937 0.00215748,0.0185157l0.0454882 -0.00386614 0.0279921 -0.017374 0.00732283 -0.0353189 0.0364567 -0.00288583 0.0139173 -0.0297047 -0.033 -0.00675197 -0.0291299 0.000566929z"/>
     <polygon id="_80516496" class="fil1" points="3.0113,2.2012 3.00857,2.2388 3.06183,2.2342 3.06744,2.19676 3.03543,2.1715 "/>
     <path id="_80516808" class="fil1" d="M5.10469 1.49185c0.0596102,0.0525276 0.116815,0.107744 0.171339,0.165559l-0.000570866 0.124382 -0.10998 0.0561102 0.011189 0.0364567 0.175571 0.00158661 0.0499646 -0.0742559c0.112461,0.138583 0.210843,0.28913 0.292709,0.44952l-0.0158307 0.0179016 0 0.113236 0.0499252 -0.00675591 0.0253071 0.000527559c0.0164803,0.0371102 0.0321457,0.0747047 0.046874,0.112748l-0.132724 0.00215748 -0.0673386 -0.0733622 -0.0127756 -0.118402 -0.0684764 0.0375984 -0.0370276 0.144114 -0.0985866 -0.105382 -0.00402756 -0.0993189 -0.0959016 -0.0823937 -0.035315 -0.035315 -0.110917 0 0.0352756 0.0991969 0.1335 0.0740512 0.0229882 0.0246969 -0.028563 0.0144843 0.000976378 0.0785276 -0.0650197 0.0269764 -0.055378 -0.0123268 -0.0349094 -0.0487874 0.0902874 0.00443701 0.0246969 -0.0324291 -0.200102 -0.135244 -0.0152165 -0.057126 -0.0812126 0.0735236 -0.0823937 -0.0169685 -0.125768 0.16263 -0.0245354 0.0640433 -0.0802362 0.00716142 -0.118846 0.000566929 -0.0706339 -0.0329961 -0.0207913 -0.14139 0.0252638 -0.0666063 0.120559 -0.0264055 0.131787 0.0264055 0.0161969 -0.0729134 -0.0561102 -0.0135079 0.0190827 -0.113236 0.132925 -0.0208307 0.0925669 -0.131177 0.0959016 -0.0162362 0.0862559 0.0129409 0.0314528 0 -0.017374 -0.122878 -0.104933 0.0426417 -0.0370276 -0.091874 -0.0610315 -0.00846457 -0.011189 -0.0633071 0.0498031 -0.0538307 0.11828 -0.0466299 0.0300669 -0.0538307zm0.765543 1.20054c0.0128976,0.0440669 0.0247362,0.0886181 0.035315,0.133618l-0.00715748 0.00764961 0.0152953 0.0287283c0.0389803,0.177437 0.0596496,0.361795 0.0596496,0.550953 0,0.612311 -0.215118,1.17429 -0.573697,1.61481l-0.0838583 0 0 -0.170398 -0.0976102 -0.131177 0 -0.205272 -0.0745 -0.0740512 -0.00618504 -0.0851181 0.0947638 -0.181142 -0.180004 -0.317366 0.0214016 -0.214752 -0.162059 -0.017374 -0.0594449 -0.0594016 -0.108799 0 -0.0549685 0.0509409 -0.191764 0 -0.00618504 0.017374 -0.107047 0 -0.244453 -0.279118 0.00227559 -0.217031 0.0403228 -0.0150945 0.0150945 -0.0829606 -0.0576929 0 -0.0235591 -0.087563 0.283063 -0.204087 0 -0.144567 0.138504 -0.0775079 0.0561496 0.00618504 0.114374 0 0.0891457 -0.0480945 0.287661 -0.0225394 0 0.147004 0.226469 0.0576929 0.0447992 0.0320236 0.041622 0 0 -0.0802756 0.13122 -0.0123307 0.124421 0.0926063 0.20413 0 0.0133071 -0.0123701zm-4.81402 -0.279402c0.0283189,-0.0666496 0.0595276,-0.131831 0.0932165,-0.195465l0.104689 -0.127394 -0.00435039 -0.0455709c0.173654,-0.273909 0.397965,-0.512543 0.65963,-0.702843l0.128004 -0.0011378 0.0578583 0.0318583 0.108228 0.0236811 0.00834252 0.0424764 0.172677 0.00675591 -0.0235591 -0.0554173 -0.153024 -0.00459843 0.0358858 -0.0329961 -0.0128976 -0.0409331 -0.138504 0 0.151402 -0.112665 0.144685 0 0.0677874 0.0935827 0.113232 0.00675591 0.0679094 -0.0661614 0.0515118 0.0252677 -0.0941535 0.0918346c0,0 -0.129469,0.0023189 -0.123323,0.0023189 0.00675197,0 0.0106575,0.0891457 0.0106575,0.0891457l0.157587 -0.00447638 0.0168031 -0.0420315 0.108799 -0.00675197 0.0127756 -0.0638819 -0.0638819 -0.0107795 0.0214055 -0.057126 0.0486181 -0.0152165 0.170524 0.00846063 -0.0941496 0.0852835 0.0150945 0.0661575 0.0981811 0.0145236 -0.00618504 -0.118846 0.0935827 -0.0493976 0.165921 -0.0189567 0.240547 0.10652 0 0.0913031 0.0767795 0.0196535 -0.0386142 0.0723425 -0.108189 0 -0.0325906 0.0829606 -0.247748 -0.0588346 0.195098 -0.103795 -0.0745 -0.063311 -0.168244 0.0212402 -0.0146457 0.0152165 -0.000570866 0 -0.00272441 0.00329528 -0.0482165 0.0505354 -0.0802362 0.00675591 0.00618504 0.039752 0.0279921 0.0117559 -0.00101575 0.0135118 -0.065185 0.00890945 -0.00443307 0.0381654 -0.0621693 0.00288976 -0.0111929 -0.0752323 -0.112256 0.0341772 -0.228217 0.133496 0.0258346 0.0941535 0.0638819 0.0414606 0.127311 0.0179409 0 0.145256 0.0594449 -0.00944094 0.0543976 -0.113843 0.135654 -0.0426417 0 -0.174386 0.0757638 -0.057126 0.182157 0.0430472 -0.0123268 0.114984 0.0487835 0 0.134067 -0.0655906 0.00618504 0.15087 0.0979764 0.0594055 -0.00386614 0.0897165 -0.0935433 0.0320197 0.00618504 0.0297047 0.112626 0.0509409 -0.0023189 0.0617205 -0.0324291 0.00272835 -0.000570866 -0.00158661 -0.141917 -0.0437402 -0.00618504 -0.0453661 0.041622 -0.0287244 0 -0.0420315 -0.0449173 -0.0112323 -0.011189 0.0387756 -0.0785276 0.0117598 -0.0078937 -0.00284646 0 0.00398425 -0.026815 0.00447638 -0.0224173 -0.0449173 -0.0258386 -0.0112323 -0.0555394 0 -0.0257126 0.0208346 0 0.045937 0.0480945 0.015622 0.0472362 0.00675591 -0.0107835 0.00504331 -0.0430472 0.0476457 -0.0190827 -0.0239646 -0.0415 -0.0107835 -0.113236 0.106524 0.0144882 0.0123268 -0.167067 0.0926063 -0.157622 0.164173 -0.011189 0.0729134 -0.158031 0.103795 -0.0779173 0.0790984 0.00829921 0.157461 -0.108638 -0.0509803 0.000976378 -0.0919961 -0.302146 0 -0.156445 0.0790945 -0.068315 0.125606 -0.0264094 0.0991535 0.0437835 0.0964724 0.123283 0.0152165 0.195626 -0.131177 0.017374 0.0650197 -0.0599724 0.112665 0.149118 0.0258346 0.0152205 0.230335 0.204087 0.0341772 0.130083 -0.149528 0.157583 0.0318583 0.0554173 0.0767362 0.15087 -0.00887008 0.00443307 -0.0449173 0.0830866 0.0408898 0.093622 0.146965 0.161449 0.0023189 0.0600157 0.104201 0.00846063 0.127882 0.178823 0.067748 0.225331 0.0023189 0.0662008 0.108228 0.100335 0.0324291 -0.0196929 0.0892677 -0.109205 0.13952 -0.0320236 0.308453 -0.0991969 0.0779606 -0.146965 -0.00459843 -0.0487835 0.0852795 0.0364173 0.15974 -0.159701 0.204701 -0.0511063 0.0937047 -0.152413 0.0727913 -0.100339 0.0152165 -0.00402756 0.0426417 0.070185 0.0200591 -0.00846063 0.0455276 -0.0627402 0.0611535 0.0380433 0.0476457 0.0757992 0.00215748 -0.00402756 0.0582638 -0.0200984 0.0578583 -0.00618504 0.0465079 0.111524 0.0947205 -0.0146063 0.0487835 -0.152457 -0.00284646 -0.152012 -0.132193 -0.117709 -0.208118 0.0162362 -0.200106 -0.0897165 -0.119417 0.0364567 -0.202382 -0.0532638 -0.0146457 0 -0.439102c0,0 -0.149118,-0.112665 -0.157583,-0.112665 -0.00834252,0 -0.0783661,-0.0189606 -0.0783661,-0.0189606l-0.0152165 -0.0830866 -0.194079 -0.24274 0.0196929 -0.0873976 0.00614173 -0.142531 0.134067 -0.0935827 -0.0190827 -0.15978 -0.196197 -0.0146496 -0.153189 -0.174913 -0.108228 -0.0297047 -0.0705945 -0.0127756 0.00846457 -0.0634724 -0.0891496 -0.0128976 0 0.0358858 -0.223783 -0.0548465 -0.0902835 -0.137933 0.037063 -0.0667283 -0.141835 -0.206409 -0.0241299 -0.151315 -0.057248 0 0.0190827 0.146843 0.0981811 0.151437 -0.0106181 0.0594449 -0.0835354 -0.012937 -0.102043 -0.173819 0 -0.202949 -0.106075 -0.0511063 0 -0.143626zm0.85172 -0.941232l0 -0.00443307 0.0561496 0 0.00443307 -0.019126 0.091874 0 0 0.0397953 -0.0262835 0.0347047 -0.126173 0 0 -0.0509409zm0.0897165 0.124425c0,0 0.0555787,-0.00944094 0.0605827,-0.00944094 0.00443701,0 0,0.0559843 0,0.0559843l-0.126173 0.0078937 -0.024126 -0.0286024 0.0897165 -0.0258346zm0.146843 0.293846l0.0667677 -0.0320236 0.0605433 0.0146496 -0.0206693 0.081252 -0.0655866 0.0207913 -0.0410551 -0.0846693zm0.356142 0.19176l0 0.0526929 -0.153598 0 -0.0572874 -0.0156654 0.0146457 -0.0370276 0.0733622 -0.0302717 0.100457 0 0 0.0302717 0.0224213 0zm0.0700236 0.0734843l0 0.0509803 -0.0381654 0.0246575 -0.0480945 0.00890945 0 -0.0845472 0.0862598 0zm-0.0432126 -0.0207913l0 -0.0605866 0.0528543 0.0476457 -0.0528543 0.0129409zm0.0241299 0.122835l0 0.0498425 -0.0364567 0.0364567 -0.0818228 0 0.012937 -0.0555787 0.0386142 -0.00329528 0.0078937 -0.0190827 0.0588346 -0.00834252zm-0.202953 -0.102043l0.0846732 0 -0.108232 0.151886 -0.0447953 -0.024126 0.00948031 -0.0638819 0.058874 -0.063878zm0.346496 0.0845472l0 0.0499646 -0.081252 0 -0.022378 -0.0324685 0 -0.0460591 0.00675591 0 0.096874 0.028563zm-0.0750669 -0.068315l0.0235157 -0.024126 0.039185 0.024126 -0.0312913 0.0258386 -0.0314094 -0.0258386z"/>
    </g>
   </g>
   <g>
    <path id="_311113712" class="fil2" d="M3.41333 0.853335c1.41383,0 2.56,1.14616 2.56,2.56 0,1.41383 -1.14616,2.56 -2.56,2.56l0 -5.11999z"/>
    <g>
     <polygon id="_79688288" class="fil3" points="4.69008,1.86361 4.6957,1.90507 4.63339,1.91802 4.62506,2.00615 4.69956,2.00615 4.79887,1.9965 4.84985,1.93594 4.79547,1.91472 4.76576,1.88054 4.72095,1.80819 4.69956,1.70615 4.61546,1.72296 4.5919,1.75941 4.5919,1.79972 4.63226,1.82716 "/>
     <polygon id="_79689128" class="fil3" points="4.61891,1.8979 4.62334,1.84237 4.57396,1.82098 4.50506,1.83675 4.45396,1.91916 4.45396,1.97185 4.51341,1.97185 "/>
     <path id="_79688792" class="fil3" d="M5.10468 1.49185c0.0596142,0.0525197 0.116811,0.10774 0.171343,0.165555l-0.000574803 0.124394 -0.109976 0.0560984 0.0111929 0.0364567 0.175575 0.00158661 0.0499567 -0.0742402c0.112461,0.138575 0.210835,0.289114 0.292709,0.449508l-0.0158346 0.0178937 0 0.113244 0.0499213 -0.00676378 0.025315 0.00053937c0.0164724,0.0371102 0.0321417,0.0746969 0.0468661,0.11274l-0.132709 0.00215748 -0.0673425 -0.0733583 -0.0127795 -0.118409 -0.0684724 0.0376024 -0.0370315 0.144114 -0.0985866 -0.105386 -0.00401969 -0.0993071 -0.0959094 -0.0823937 -0.035315 -0.035315 -0.110909 0 0.0352677 0.0991929 0.133492 0.0740591 0.0229921 0.0246929 -0.028563 0.0144803 0.000980315 0.0785354 -0.0650236 0.0269646 -0.0553819 -0.0123228 -0.0349055 -0.0487953 0.0902874 0.00444488 0.0246929 -0.032437 -0.200102 -0.135228 -0.0151969 -0.0571299 -0.0812362 0.0735236 -0.082378 -0.0169646 -0.125764 0.162614 -0.0245276 0.0640591 -0.080252 0.00714173 -0.118854 0.000570866 -0.070626 -0.0329921 -0.0207874 -0.141386 0.025248 -0.0666102 0.120567 -0.0264055 0.131795 0.0264055 0.0161929 -0.0729134 -0.0561142 -0.0135 0.0190866 -0.113228 0.132937 -0.0208543 0.0925591 -0.131173 0.0958898 -0.0162244 0.0862677 0.0129409 0.0314567 0 -0.0173858 -0.12289 -0.104929 0.0426535 -0.0370118 -0.091874 -0.0610551 -0.00846457 -0.0111772 -0.0633071 0.0497953 -0.0538465 0.11828 -0.0466024 0.0300669 -0.0538465zm-1.69135 3.4393l0 -1.07885 0.0696142 0.026374 0.225335 0.00233858 0.0661969 0.108213 0.100339 0.032437 -0.0196929 0.0892598 -0.109209 0.139524 -0.0320157 0.308461 -0.0991929 0.0779488 -0.146972 -0.00459055 -0.0487795 0.0852677 0.0364055 0.15974 -0.0420276 0.053878zm0 -2.79592l0 -0.0853031 0.0802362 0.0362953 -0.0023189 0.0617205 -0.0324252 0.0027126 -0.000570866 -0.00158661 -0.0449213 -0.0138386zm0 -0.142874l0 -0.144197 0.0588268 0.0356732 -0.00385433 0.0897126 -0.0549724 0.018811zm0 -0.474102l0 -0.20739 0.0544016 0.0240906 0 0.0912992 0.0767717 0.0196575 -0.0386142 0.0723425 -0.0925591 0zm2.45688 1.17412c0.0129094,0.0440748 0.0247559,0.0886378 0.0353307,0.133626l-0.00717323 0.00764567 0.015311 0.0287283c0.0389724,0.177437 0.0596457,0.361803 0.0596457,0.550957 0,0.612299 -0.215118,1.1743 -0.573685,1.61482l-0.0838661 0 0 -0.170409 -0.097622 -0.131173 0 -0.205268 -0.0745 -0.0740591 -0.00617717 -0.0851063 0.0947638 -0.181146 -0.180004 -0.31737 0.0213937 -0.21474 -0.162043 -0.0173898 -0.0594528 -0.0594016 -0.108799 0 -0.0549724 0.050937 -0.191768 0 -0.00617717 0.0173858 -0.107055 0 -0.244453 -0.27911 0.0022874 -0.217031 0.040315 -0.0151024 0.0150984 -0.0829646 -0.0577008 0 -0.0235472 -0.0875591 0.283051 -0.204087 0 -0.144575 0.138512 -0.0775079 0.0561496 0.00619291 0.114374 0 0.0891417 -0.0480906 0.287661 -0.0225354 0 0.147008 0.226476 0.0576693 0.0447913 0.0320472 0.041622 0 0 -0.0802874 0.13122 -0.0123386 0.124425 0.092626 0.204122 0 0.0133031 -0.0123898z"/>
    </g>
   </g>
  </g>
 </g>
 <rect class="fil4" width="6.82666" height="6.82666"/>
</svg>
